<svg xmlns="http://www.w3.org/2000/svg" viewBox="0 0 87.1 98.2"><title>icon-systems</title><path d="M86.9,28.1a7.7,7.7,0,0,0-3.5-6L47,1.1a7.7,7.7,0,0,0-6.9,0L3.7,22.1a7.7,7.7,0,0,0-3.5,6v42a7.7,7.7,0,0,0,3.5,6l36.4,21a7.7,7.7,0,0,0,6.9,0l36.4-21a7.7,7.7,0,0,0,3.5-6Z" style="fill:#fff"/><path d="M86.9,28.1a7.7,7.7,0,0,0-3.5-6L47,1.1a7.7,7.7,0,0,0-6.9,0L3.7,22.1a7.7,7.7,0,0,0-3.5,6v42a7.7,7.7,0,0,0,3.5,6l36.4,21a7.7,7.7,0,0,0,6.9,0l36.4-21a7.7,7.7,0,0,0,3.5-6Z" style="fill:none;stroke:#000;stroke-miterlimit:10;stroke-width:0.5px"/><path d="M38.4,39.1h9.4V29.7H38.4Zm11.1,1.7H36.7V28H49.5Z"/><path d="M23.3,50.8H46.6V47.4H23.3Zm24.9,1.7H21.7V45.7H48.2Z"/><path d="M23.3,59.6H46.6V56.2H23.3Zm24.9,1.7H21.7V54.5H48.2Z"/><path d="M58.8,42.6a5.5,5.5,0,1,0,5.5,5.5A5.5,5.5,0,0,0,58.8,42.6Zm0,12.6a7.1,7.1,0,1,1,7.1-7.1A7.2,7.2,0,0,1,58.8,55.2Z"/><path d="M58.4,33.3a1.1,1.1,0,1,0,1.1,1.1A1.1,1.1,0,0,0,58.4,33.3Zm0,3.8a2.7,2.7,0,1,1,2.7-2.7A2.7,2.7,0,0,1,58.4,37.1Z"/><rect x="48.6" y="33.5" width="7.9" height="1.68"/><rect x="42.7" y="39.9" width="1.7" height="6.62"/><rect x="25.3" y="51.6" width="1.7" height="3.78"/><rect x="57.9" y="54.4" width="1.7" height="18.85"/><path d="M41.5,65.7a1.4,1.4,0,0,0-1.4,1.4v3.7a1.4,1.4,0,0,0,1.4,1.4h3.8a1.4,1.4,0,0,0,1.4-1.4V67.1a1.4,1.4,0,0,0-1.4-1.4Zm3.8,8.2H41.5a3.1,3.1,0,0,1-3-3V67.1a3.1,3.1,0,0,1,3-3h3.8a3.1,3.1,0,0,1,3,3v3.7A3.1,3.1,0,0,1,45.3,73.9Z"/><polygon points="39.3 69.8 34.1 69.8 34.1 60.4 35.8 60.4 35.8 68.1 39.3 68.1 39.3 69.8"/><path d="M27.1,41.9h2.6V32.5H27.1Zm4.3,1.7h-6V30.8h6Z"/><rect x="17.8" y="36.4" width="8.5" height="1.68"/><path d="M43.6,21.3A27.8,27.8,0,1,0,71.3,49.1,27.8,27.8,0,0,0,43.6,21.3Zm0,57.2A29.5,29.5,0,1,1,73,49.1,29.5,29.5,0,0,1,43.6,78.5Z"/></svg>