<svg xmlns="http://www.w3.org/2000/svg" viewBox="0 0 87.1 98.2"><title>icon-thermal</title><path d="M86.9,28.1a7.7,7.7,0,0,0-3.5-6L47,1.1a7.7,7.7,0,0,0-6.9,0L3.7,22.1a7.7,7.7,0,0,0-3.5,6v42a7.7,7.7,0,0,0,3.5,6l36.4,21a7.7,7.7,0,0,0,6.9,0l36.4-21a7.7,7.7,0,0,0,3.5-6Z" style="fill:#fff"/><path d="M86.9,28.1a7.7,7.7,0,0,0-3.5-6L47,1.1a7.7,7.7,0,0,0-6.9,0L3.7,22.1a7.7,7.7,0,0,0-3.5,6v42a7.7,7.7,0,0,0,3.5,6l36.4,21a7.7,7.7,0,0,0,6.9,0l36.4-21a7.7,7.7,0,0,0,3.5-6Z" style="fill:none;stroke:#000;stroke-miterlimit:10;stroke-width:0.5px"/><path d="M62.8,66.5a9.2,9.2,0,0,1,.4-2.1,11.7,11.7,0,0,1,2.6-4.2c1.6-1.9,3.3-3.9,3.3-7.8s-1.7-5.9-3.3-7.8l-.4.4h0l-.4.4c1.5,1.8,3,3.6,3,7.1s-1.5,5.3-3,7.1a12.8,12.8,0,0,0-2.8,4.6,10.3,10.3,0,0,0-.4,2.4H54.2a9.2,9.2,0,0,1,.4-2.1,11.7,11.7,0,0,1,2.6-4.2c1.6-1.9,3.3-3.9,3.3-7.8s-1.7-5.9-3.3-7.8l-.4.4h0l-.4.4c1.5,1.8,3,3.6,3,7.1s-1.5,5.3-3,7.1a12.8,12.8,0,0,0-2.8,4.6,10.3,10.3,0,0,0-.4,2.4H45.6a9.2,9.2,0,0,1,.4-2.1,11.7,11.7,0,0,1,2.6-4.2c1.6-1.9,3.3-3.9,3.3-7.8s-1.7-5.9-3.3-7.8l-.9.7c1.5,1.8,3,3.6,3,7.1s-1.5,5.3-3,7.1a12.8,12.8,0,0,0-2.8,4.6,10.3,10.3,0,0,0-.4,2.4H37a9.2,9.2,0,0,1,.4-2.1,11.7,11.7,0,0,1,2.6-4.2c1.6-1.9,3.3-3.9,3.3-7.8s-1.7-5.9-3.3-7.8l-.4.4h0l-.4.4c1.5,1.8,3,3.6,3,7.1s-1.5,5.3-3,7.1a12.8,12.8,0,0,0-2.8,4.6,10.3,10.3,0,0,0-.4,2.4H14.7v1.1H72.4V66.5Z" style="stroke:#000;stroke-miterlimit:10;stroke-width:0.75px"/><rect x="14.7" y="75" width="57.7" height="1.14" style="stroke:#000;stroke-miterlimit:10;stroke-width:0.75px"/><path d="M23.3,60.6a6.2,6.2,0,0,0,3.2-11.5V25.2a3.2,3.2,0,0,0-6.4,0V49.1a6.2,6.2,0,0,0,3.2,11.5Zm0-37.4a2.1,2.1,0,0,1,2.1,2.1V40.8H21.2V25.2A2.1,2.1,0,0,1,23.3,23.2ZM20.9,49.9l.3-.2V41.9h4.1v7.8l.3.2a5.1,5.1,0,1,1-4.7,0Z" style="stroke:#000;stroke-miterlimit:10;stroke-width:0.5px"/><polygon points="48.1 44.9 48.1 44.9 48.1 44.9 48.1 44.9"/><path d="M41.3,27.6h.3a.6.6,0,0,0,.5-.3h0a.6.6,0,0,0-1-.5h0A.6.6,0,0,0,41.3,27.6Z"/><path d="M42.2,25.5h.1a.6.6,0,0,0,.6-.5h0a.6.6,0,0,0-1.1-.2h0A.6.6,0,0,0,42.2,25.5Z"/><path d="M42.6,23.2a.6.6,0,0,0,.6-.6h0a.6.6,0,0,0-1.1,0h0A.6.6,0,0,0,42.6,23.2Z"/><path d="M38.5,31.2h.4l.4-.2h0a.6.6,0,1,0-.9-.7h0A.6.6,0,0,0,38.5,31.2Z"/><path d="M40,29.4h.3l.5-.2h0a.6.6,0,1,0-.9-.7h0A.6.6,0,0,0,40,29.4Z"/><path d="M37.1,39.3h0a.6.6,0,0,0-.7-.5.6.6,0,0,0-.5.7.6.6,0,0,0,.6.5h.1A.6.6,0,0,0,37.1,39.3Z"/><path d="M36.5,35.3h.1a.6.6,0,0,0,.5-.4h0a.6.6,0,1,0-1.1-.3h0A.6.6,0,0,0,36.5,35.3Z"/><path d="M36.3,37.6h0a.6.6,0,0,0,.6-.5h0a.6.6,0,0,0-1.1,0h0A.6.6,0,0,0,36.3,37.6Z"/><path d="M37.2,42.1h.2a.6.6,0,0,0,.3-.7h0a.6.6,0,0,0-.7-.3.6.6,0,0,0-.3.8A.6.6,0,0,0,37.2,42.1Z"/><path d="M37.9,43.8h0l.5.2h.3a.6.6,0,0,0,.1-.8h0a.6.6,0,0,0-.9.7Z"/><path d="M37.3,33.1h.3a.6.6,0,0,0,.5-.3h0a.6.6,0,0,0-.2-.8.6.6,0,0,0-.8.2A.6.6,0,0,0,37.3,33.1Z"/><path d="M68.1,25.5h.1a.6.6,0,0,0,.6-.5h0a.6.6,0,0,0-1.1-.2h0A.6.6,0,0,0,68.1,25.5Z"/><path d="M62.2,37.6h0a.6.6,0,0,0,.6-.6h0a.6.6,0,0,0-1.1-.1h0A.6.6,0,0,0,62.2,37.6Z"/><path d="M68.5,23.2a.6.6,0,0,0,.6-.6h0a.6.6,0,0,0-1.1,0h0A.6.6,0,0,0,68.5,23.2Z"/><path d="M67.2,27.6h.3a.6.6,0,0,0,.5-.3h0a.6.6,0,0,0-.3-.8.6.6,0,0,0-.8.3A.6.6,0,0,0,67.2,27.6Z"/><path d="M65.9,29.4h.4l.4-.2h0a.6.6,0,0,0-.1-.8.6.6,0,0,0-.8.1A.6.6,0,0,0,65.9,29.4Z"/><path d="M62.9,39.3h0a.6.6,0,0,0-.7-.5.6.6,0,0,0-.5.7.6.6,0,0,0,.6.5h.1A.6.6,0,0,0,62.9,39.3Z"/><path d="M64.4,31.2h.4l.4-.2h0a.6.6,0,1,0-.9-.7h0A.6.6,0,0,0,64.4,31.2Z"/><path d="M62.5,41.8a.6.6,0,0,0,.5.3h.2a.6.6,0,0,0,.3-.8h0a.6.6,0,0,0-1,.5Z"/><path d="M62.4,35.3h.1a.6.6,0,0,0,.5-.4h0a.6.6,0,0,0-1.1-.3h0A.6.6,0,0,0,62.4,35.3Z"/><path d="M63.7,43.8h0l.5.2h.3a.6.6,0,0,0,.1-.8h0a.6.6,0,0,0-.9.7Z"/><path d="M63.2,33.2h.3a.6.6,0,0,0,.5-.3h0a.6.6,0,1,0-1-.6h0A.6.6,0,0,0,63.2,33.2Z"/><path d="M48.6,29.4H49l.4-.2h0a.6.6,0,0,0-.1-.8.6.6,0,0,0-.8.1A.6.6,0,0,0,48.6,29.4Z"/><path d="M45.7,39.3h0a.6.6,0,0,0-.7-.5.6.6,0,0,0-.5.7.6.6,0,0,0,.6.5h.1A.6.6,0,0,0,45.7,39.3Z"/><path d="M45.3,41.8a.6.6,0,0,0,.5.3H46a.6.6,0,0,0,.3-.8h0a.6.6,0,0,0-1,.5Z"/><path d="M45.9,33.2h.3a.6.6,0,0,0,.5-.3h0a.6.6,0,1,0-1-.6h0A.6.6,0,0,0,45.9,33.2Z"/><path d="M51.2,23.2a.6.6,0,0,0,.6-.6h0a.6.6,0,0,0-1.1,0h0A.6.6,0,0,0,51.2,23.2Z"/><path d="M45.2,35.3h.1a.6.6,0,0,0,.5-.4h0a.6.6,0,0,0-1.1-.3h0A.6.6,0,0,0,45.2,35.3Z"/><path d="M45,37.6h0a.6.6,0,0,0,.6-.6h0a.6.6,0,0,0-1.1-.1h0A.6.6,0,0,0,45,37.6Z"/><path d="M50,27.6h.3a.6.6,0,0,0,.5-.3h0a.6.6,0,0,0-.3-.8.6.6,0,0,0-.8.3A.6.6,0,0,0,50,27.6Z"/><path d="M50.9,25.5H51a.6.6,0,0,0,.6-.5h0a.6.6,0,0,0-1.1-.2h0A.6.6,0,0,0,50.9,25.5Z"/><path d="M47.2,31.2h.4l.4-.2h0a.6.6,0,1,0-.9-.7h0A.6.6,0,0,0,47.2,31.2Z"/><path d="M46.5,43.8h0l.5.2h.3a.6.6,0,0,0,.1-.8h0a.6.6,0,0,0-.9.7Z"/><path d="M54.5,33.2h.3a.6.6,0,0,0,.5-.3h0a.6.6,0,1,0-1-.6h0A.6.6,0,0,0,54.5,33.2Z"/><path d="M54.3,39.3h0a.6.6,0,0,0-.7-.5.6.6,0,0,0-.5.7.6.6,0,0,0,.6.5h.1A.6.6,0,0,0,54.3,39.3Z"/><path d="M53.9,41.8a.6.6,0,0,0,.5.3h.2a.6.6,0,0,0,.3-.8h0a.6.6,0,0,0-1,.5Z"/><path d="M53.8,35.3h.1a.6.6,0,0,0,.5-.4h0a.6.6,0,0,0-1.1-.3h0A.6.6,0,0,0,53.8,35.3Z"/><path d="M59.9,23.2a.6.6,0,0,0,.6-.6h0a.6.6,0,0,0-1.1,0h0A.6.6,0,0,0,59.9,23.2Z"/><path d="M53.6,37.6h0a.6.6,0,0,0,.6-.6h0a.6.6,0,0,0-1.1-.1h0A.6.6,0,0,0,53.6,37.6Z"/><path d="M55.1,43.8h0l.5.2h.3a.6.6,0,0,0,.1-.8h0a.6.6,0,0,0-.9.7Z"/><path d="M58.6,27.6h.3a.6.6,0,0,0,.5-.3h0a.6.6,0,0,0-.3-.8.6.6,0,0,0-.8.3A.6.6,0,0,0,58.6,27.6Z"/><path d="M59.5,25.5h.1a.6.6,0,0,0,.6-.5h0a.6.6,0,0,0-1.1-.2h0A.6.6,0,0,0,59.5,25.5Z"/><path d="M57.2,29.4h.4l.4-.2h0a.6.6,0,0,0-.1-.8.6.6,0,0,0-.8.1A.6.6,0,0,0,57.2,29.4Z"/><path d="M55.8,31.2h.4l.4-.2h0a.6.6,0,1,0-.9-.7h0A.6.6,0,0,0,55.8,31.2Z"/></svg>